<svg id="Layer_1" data-name="Layer 1" xmlns="http://www.w3.org/2000/svg" viewBox="0 0 418.82 418.82"><defs><style>.cls-1{fill:#e73425;}</style></defs><path class="cls-1" d="M154.39,93.92q20.38-13.12,50.1-13.13,39,0,64.88,18.66t25.82,55.28q0,22.47-11.2,37.84-6.54,9.33-25.15,23.84l-12.24,9.5q-10,7.77-13.26,18.14c-.25.78-.48,1.65-.68,2.59a22.75,22.75,0,0,1-22.22,17.8h-1.52a22.81,22.81,0,0,1-22.54-26.13,65.07,65.07,0,0,1,3.41-14.21q4.49-11.15,23.08-25.66l12.58-9.85a44.06,44.06,0,0,0,10-10.19,34.83,34.83,0,0,0,6.89-20.9,40.4,40.4,0,0,0-7.67-23.93q-7.66-10.8-28-10.8-20,0-28.35,13.3a56.74,56.74,0,0,0-5.8,12.07,22.76,22.76,0,0,1-21.58,15.57h-4.43c-15.14,0-26.25-14.55-21.91-29.05Q132.62,107.78,154.39,93.92ZM205.85,288.1H212a22.78,22.78,0,0,1,22.78,22.79v4.36A22.78,22.78,0,0,1,212,338h-6.1a22.78,22.78,0,0,1-22.78-22.78v-4.36A22.78,22.78,0,0,1,205.85,288.1Z"/><path class="cls-1" d="M209.41,418.82C93.94,418.82,0,324.88,0,209.41S93.94,0,209.41,0,418.82,93.94,418.82,209.41,324.88,418.82,209.41,418.82Zm0-404.49c-107.57,0-195.08,87.51-195.08,195.08s87.51,195.08,195.08,195.08S404.49,317,404.49,209.41,317,14.33,209.41,14.33Z"/></svg>